<svg width="54" height="54" viewBox="0 0 54 54" fill="none" xmlns="http://www.w3.org/2000/svg">
<g clip-path="url(#clip0_122_14)">
<path d="M39.6492 5.21959L27.2124 0.960481L14.7757 5.21959L0.603516 0.366211V48.7809L14.7757 53.6343L27.2124 49.3752L39.6492 53.6343L53.8213 48.7809V0.366211L39.6492 5.21959ZM13.0403 49.345L4.07421 46.2746V35.0629L13.0403 38.1333V49.345ZM13.0403 34.4385L4.07421 31.3681V20.1563L13.0403 23.2268V34.4385ZM13.0403 19.5318L4.07421 16.4614V5.24966L13.0403 8.32013V19.5318ZM25.477 46.2746L16.511 49.3451V38.1334L25.477 35.0629V46.2746ZM25.477 31.3681L16.511 34.4386V23.2269L25.477 20.1564V31.3681ZM25.477 16.4614L16.511 19.5318V8.32013L25.477 5.24966V16.4614ZM28.9478 5.24966L37.9139 8.32013V12.5033C36.4124 12.8314 35.0336 13.5831 33.9229 14.7026C33.0969 15.5351 32.4891 16.505 32.0953 17.5393L28.9478 16.4614V5.24966ZM37.9139 49.3451L28.9478 46.2746V35.0629L37.9139 38.1334V49.3451ZM37.9139 34.4385L28.9478 31.368V20.1563L31.5774 21.0568C31.7105 22.9491 32.4907 24.8035 33.9229 26.247L37.9139 30.2701V34.4385ZM36.377 23.7734C34.5727 21.9546 34.5727 18.9952 36.377 17.1764C37.2491 16.2974 38.4112 15.8134 39.6492 15.8134C40.8872 15.8134 42.0493 16.2974 42.9214 17.1764C44.7257 18.9952 44.7257 21.9546 42.9214 23.7734L39.6492 27.0717L36.377 23.7734ZM50.3506 46.2747L41.3846 49.3451V38.1334L50.3506 35.063V46.2747ZM50.3506 31.3681L41.3846 34.4385V30.27L45.3756 26.2469C46.8077 24.8034 47.5881 22.949 47.721 21.0567L50.3506 20.1562V31.3681ZM50.3506 16.4614L47.2031 17.5393C46.8093 16.505 46.2015 15.5352 45.3755 14.7027C44.2649 13.5832 42.886 12.8315 41.3845 12.5034V8.32013L50.3505 5.24966V16.4614H50.3506Z" fill="white"/>
<path d="M39.6456 18.7285C38.6887 18.7285 37.9102 19.5133 37.9102 20.4778C37.9102 21.4423 38.6887 22.2271 39.6456 22.2271C40.6024 22.2271 41.381 21.4423 41.381 20.4778C41.381 19.5133 40.6024 18.7285 39.6456 18.7285Z" fill="white"/>
</g>
<defs>
<clipPath id="clip0_122_14">
<rect x="0.603516" y="0.178223" width="53.2178" height="53.6436" rx="10" fill="white"/>
</clipPath>
</defs>
</svg>
